<?xml version="1.0" encoding="UTF-8"?>
<svg width="15.292mm" height="15.236mm" version="1.1" viewBox="0 0 15.292 15.236" xmlns="http://www.w3.org/2000/svg">
<g transform="translate(-62.189 -71.821)">
<path d="m67.481 86.587c-3.5177-1.215-5.7813-4.835-5.2014-8.3183 0.74166-4.455 5.4059-7.4117 9.7156-6.1588 1.9387 0.5636 3.561 1.8263 4.6258 3.6003 0.79218 1.3199 0.8599 1.6116 0.8599 3.705s-0.06771 2.3852-0.8599 3.705c-1.0405 1.7336-2.6632 3.0213-4.4915 3.5642-1.7611 0.523-2.9226 0.49863-4.6486-0.09752zm3.3854-2.1447c0-0.99954-0.0441-1.0583-0.79375-1.0583s-0.79375 0.0588-0.79375 1.0583c0 0.99954 0.0441 1.0583 0.79375 1.0583s0.79375-0.0588 0.79375-1.0583zm0-3.1908c0-0.93293 0.18264-1.2673 1.3891-2.5429 1.2394-1.3104 1.3891-1.5932 1.3891-2.624 0-1.7067-0.92994-2.5507-2.9734-2.6985-1.0221-0.07393-1.8731 0.027-2.5253 0.2995-0.84076 0.35129-0.98368 0.5324-0.98368 1.2466 0 0.69465 0.07808 0.80224 0.46302 0.63798 2.1919-0.93533 2.5832-1.008 3.3804-0.62747 1.2862 0.61385 1.1819 1.4956-0.38938 3.2912-1.2125 1.3855-1.3374 1.6481-1.3374 2.8101 0 1.2478 0.02104 1.2818 0.79375 1.2818 0.7516 0 0.79375-0.05704 0.79375-1.0742z" stroke-width=".26458"/>
</g>
</svg>
