<?xml version="1.0" encoding="UTF-8"?>
<svg data-name="Layer 1" viewBox="0 0 3756.1 3756.5" xmlns="http://www.w3.org/2000/svg">
<title>monero</title>
<path transform="translate(-371.96 -371.75)" d="m4128 2249.8c0 1037.2-840.74 1878-1878 1878s-1878-840.86-1878-1878 840.76-1878.1 1878-1878.1 1878 840.79 1878 1878.1z" fill="#fff"/>
<path transform="translate(-371.96 -371.75)" d="M2250,371.75c-1036.89,0-1879.12,842.06-1877.8,1878,0.26,207.26,33.31,406.63,95.34,593.12h561.88V1263L2250,2483.57,3470.52,1263v1579.9h562c62.12-186.48,95-385.85,95.37-593.12C4129.66,1212.76,3287,372,2250,372Z" fill="#f26822" data-name=" 149931032"/>
<path transform="translate(-371.96 -371.75)" d="m1969.3 2764.2-532.67-532.7v994.14h-407.25l-384.29 0.07c329.63 540.8 925.35 902.56 1604.9 902.56s1275.3-361.84 1605-902.64h-791.75v-994.13l-813.31 813.31-280.62-280.61z" fill="#4d4d4d" data-name=" 149931160"/>
</svg>
